<?xml version="1.0" encoding="UTF-8"?>
<svg width="78px" height="74px" viewBox="0 0 78 74" version="1.1" xmlns="http://www.w3.org/2000/svg" xmlns:xlink="http://www.w3.org/1999/xlink">
    <!-- Generator: Sketch 50 (54983) - http://www.bohemiancoding.com/sketch -->
    <title>Page 1</title>
    <desc>Created with Sketch.</desc>
    <defs>
        <polygon id="path-1" points="0 74 78 74 78 0 0 0"></polygon>
    </defs>
    <g id="Page-1" stroke="none" stroke-width="1" fill="none" fill-rule="evenodd">
        <g id="home" transform="translate(-1461.000000, -1167.000000)">
            <g id="Group-8" transform="translate(1461.000000, 1167.000000)">
                <g id="Page-1">
                    <polygon id="Stroke-1" fill="#D68230" fill-rule="nonzero" points="20.6883 23.3261566 20.6883 33.7208 18.6883 33.7208 18.6883 22.1714434 39.1742872 10.3441132 59.6613 22.1714286 59.6613 33.7208 57.6613 33.7208 57.6613 23.3261714 39.1743128 12.6534868"></polygon>
                    <polygon id="Stroke-2" fill="#D68230" fill-rule="nonzero" points="57.6613 41.0157 59.6613 41.0157 59.6613 45.8280458 39.1742872 57.6564124 18.6883 45.828031 18.6883 41.0157 20.6883 41.0157 20.6883 44.673369 39.1743128 55.3469876 57.6613 44.6733542"></polygon>
                    <polygon id="Stroke-3" fill="#D68230" fill-rule="nonzero" points="39.175 32.5662023 57.1960037 22.1618725 58.1959963 23.8939275 39.175 34.8755977 20.1540037 23.8939275 21.1539963 22.1618725"></polygon>
                    <polygon id="Stroke-4" fill="#D68230" fill-rule="nonzero" points="38.1745 34.0001 40.1745 34.0001 40.1745 56.0831 38.1745 56.0831"></polygon>
                    <g id="Group-36">
                        <path d="M2.0002,43.0001 L0.0002,43.0001 L0.0002,36.0001 C0.0002,34.3438153 1.34391525,33.0001 3.0002,33.0001 L4.0002,33.0001 C5.65648475,33.0001 7.0002,34.3438153 7.0002,36.0001 L7.0002,43.0001 L5.0002,43.0001 L5.0002,36.0001 C5.0002,35.4483847 4.55191525,35.0001 4.0002,35.0001 L3.0002,35.0001 C2.44848475,35.0001 2.0002,35.4483847 2.0002,36.0001 L2.0002,43.0001 Z" id="Stroke-5" fill="#D68230" fill-rule="nonzero"></path>
                        <polygon id="Stroke-7" fill="#D68230" fill-rule="nonzero" points="6.0002 38.0001 6.0002 40.0001 2.0002 40.0001 2.0002 38.0001"></polygon>
                        <path d="M73.0002,41.0001 L75.0002,41.0001 C75.5519153,41.0001 76.0002,40.5518153 76.0002,40.0001 C76.0002,39.4483847 75.5519153,39.0001 75.0002,39.0001 L73.0002,39.0001 L73.0002,41.0001 Z M75.0002,37.0001 C76.6564847,37.0001 78.0002,38.3438153 78.0002,40.0001 C78.0002,41.6563847 76.6564847,43.0001 75.0002,43.0001 L71.0002,43.0001 L71.0002,33.0001 L73.0002,33.0001 L73.0002,37.0001 L75.0002,37.0001 Z" id="Stroke-9" fill="#D68230" fill-rule="nonzero"></path>
                        <path d="M73.0002,43.0001 L71.0002,43.0001 L71.0002,33.0001 L75.0002,33.0001 C76.6564847,33.0001 78.0002,34.3438153 78.0002,36.0001 C78.0002,37.6563847 76.6564847,39.0001 75.0002,39.0001 L73.0002,39.0001 L73.0002,43.0001 Z M75.0002,37.0001 C75.5519153,37.0001 76.0002,36.5518153 76.0002,36.0001 C76.0002,35.4483847 75.5519153,35.0001 75.0002,35.0001 L73.0002,35.0001 L73.0002,37.0001 L75.0002,37.0001 Z" id="Stroke-11" fill="#D68230" fill-rule="nonzero"></path>
                        <polygon id="Fill-13" fill="#D68230" points="21.3136 55.42 17.8496 53.42 18.8496 51.688 22.3136 53.688"></polygon>
                        <path d="M26.8722,58.6295 L24.0932,57.0255 L25.0932,55.2925 L27.8722,56.8975 L26.8722,58.6295 Z M32.4312,61.8385 L29.6522,60.2345 L30.6522,58.5025 L33.4312,60.1065 L32.4312,61.8385 Z" id="Fill-15" fill="#D68230"></path>
                        <polygon id="Fill-17" fill="#D68230" points="39.1745 65.732 35.2105 63.443 36.2105 61.711 39.1745 63.422 42.1385 61.711 43.1385 63.443"></polygon>
                        <path d="M51.4767,58.6295 L50.4767,56.8975 L53.2567,55.2925 L54.2567,57.0245 L51.4767,58.6295 Z M45.9177,61.8385 L44.9177,60.1065 L47.6977,58.5015 L48.6977,60.2335 L45.9177,61.8385 Z" id="Fill-19" fill="#D68230"></path>
                        <polygon id="Fill-21" fill="#D68230" points="57.0358 55.42 56.0358 53.688 59.4998 51.688 60.4998 53.42"></polygon>
                        <polygon id="Stroke-23" fill="#D68230" fill-rule="nonzero" points="62.6785303 35.3101657 64.0200697 33.8268343 68.4912489 37.8706123 64.0199579 41.9132668 62.6786421 40.4297332 65.5093511 37.8703877"></polygon>
                        <path d="M32.0002,38.0001 C32.0002,39.1041 31.1042,40.0001 30.0002,40.0001 C28.8962,40.0001 28.0002,39.1041 28.0002,38.0001 C28.0002,36.8961 28.8962,36.0001 30.0002,36.0001 C31.1042,36.0001 32.0002,36.8961 32.0002,38.0001" id="Fill-25" fill="#D68230"></path>
                        <path d="M51.0002,38.0001 C51.0002,39.1041 50.1042,40.0001 49.0002,40.0001 C47.8962,40.0001 47.0002,39.1041 47.0002,38.0001 C47.0002,36.8961 47.8962,36.0001 49.0002,36.0001 C50.1042,36.0001 51.0002,36.8961 51.0002,38.0001" id="Fill-27" fill="#D68230"></path>
                        <path d="M74.8343276,27.7508049 L72.8974724,28.2493951 C68.9493511,12.9122724 55.0627304,2.0001 38.9999,2.0001 C22.9369346,2.0001 9.05042654,12.9124067 5.10334262,28.2493366 L3.16645738,27.7508634 C7.33965267,11.535347 22.0188864,0.0001 38.9999,0.0001 C55.9807504,0.0001 70.6600571,11.5351687 74.8343276,27.7508049 Z" id="Stroke-29" fill="#D68230" fill-rule="nonzero"></path>
                        <path d="M3.45734033,47.2774822 L5.37885967,46.7227178 C9.66819623,61.5795549 23.3099957,72.0001 39.0001,72.0001 C54.6902043,72.0001 68.3320038,61.5795549 72.6213403,46.7227178 L74.5428597,47.2774822 C70.0080695,62.9844889 55.5872541,74.0001 39.0001,74.0001 C22.4129459,74.0001 7.99213049,62.9844889 3.45734033,47.2774822 Z" id="Stroke-31" fill="#D68230" fill-rule="nonzero"></path>
                        <mask id="mask-2" fill="white">
                            <use xlink:href="#path-1"></use>
                        </mask>
                        <g id="Clip-34"></g>
                        <path d="M10.688,39 L12.688,39 L12.688,37 L10.688,37 L10.688,39 Z M14.688,39 L16.688,39 L16.688,37 L14.688,37 L14.688,39 Z M18.688,39 L20.688,39 L20.688,37 L18.688,37 L18.688,39 Z M22.688,39 L24.688,39 L24.688,37 L22.688,37 L22.688,39 Z M26.688,39 L28.688,39 L28.688,37 L26.688,37 L26.688,39 Z" id="Fill-33" fill="#D68230" mask="url(#mask-2)"></path>
                        <polygon id="Stroke-35" fill="#D68230" fill-rule="nonzero" mask="url(#mask-2)" points="49.0002 39.0001 49.0002 37.0001 66.0002 37.0001 66.0002 39.0001"></polygon>
                    </g>
                </g>
            </g>
        </g>
    </g>
</svg>