<?xml version="1.0" encoding="UTF-8"?>
<svg width="185px" height="54px" viewBox="0 0 185 54" version="1.1" xmlns="http://www.w3.org/2000/svg" xmlns:xlink="http://www.w3.org/1999/xlink">
    <!-- Generator: Sketch 48.2 (47327) - http://www.bohemiancoding.com/sketch -->
    <title>Page 1</title>
    <desc>Created with Sketch.</desc>
    <defs>
        <polygon id="path-1" points="101.696523 54 0.000304792667 54 0.000304792667 0.510244898 101.696523 0.510244898 101.696523 54"></polygon>
    </defs>
    <g id="contact-region" stroke="none" stroke-width="1" fill="none" fill-rule="evenodd" transform="translate(-268.000000, -32.000000)">
        <g id="Page-1" transform="translate(268.000000, 32.000000)">
            <path d="M141.617101,30.1085319 C140.903479,34.341134 140.274917,39.6464648 136.605178,39.8081993 C132.935439,39.9699338 134.068838,34.6425983 134.781356,30.4099961 C135.10834,28.4680822 135.402184,26.7495159 135.732483,25.2708007 C137.110016,26.3402287 138.760404,26.8474368 140.443933,26.8573389 C140.525679,26.29952 140.593064,25.7758084 140.650508,25.2741014 C140.375443,25.2774021 140.101483,25.2663998 139.829732,25.230092 C138.911745,25.1112667 137.948466,24.7162825 137.321009,24.0187338 C137.007281,23.6699595 136.794078,23.2397678 136.749891,22.7699677 C136.707913,22.3353751 136.774194,21.964596 136.952047,21.5355046 C137.660145,20.1712138 138.604645,19.3977489 140.019737,19.3350355 C143.40226,19.1865039 142.758233,23.3442901 141.617101,30.1085319 Z M171.39479,22.870089 C172.535922,16.1058473 173.251754,11.9458606 176.634276,11.7962287 C177.635114,11.7522193 178.468041,12.1626068 178.841422,13.1187106 C179.747258,15.433604 178.959623,17.3425109 177.522437,18.9697577 C175.783675,20.9380772 173.094889,22.4938088 171.301998,23.8569994 C171.273276,23.8790041 171.24345,23.9010088 171.214728,23.9230134 C171.27659,23.5676377 171.336243,23.2144624 171.39479,22.870089 Z M183.091117,25.553561 C181.851669,27.1103928 179.937262,29.2184421 178.517752,30.2350588 C177.268361,31.1295495 174.517714,32.4553321 172.617669,32.140665 C170.475699,31.784189 170.567387,29.2943583 170.707681,27.5548876 C172.348127,26.3259256 173.987469,25.0980639 175.62681,23.869102 C179.31312,21.1064131 183.168445,18.1720877 182.421682,12.9943841 C182.056034,10.4649449 180.659722,8.85420161 177.122544,9.01043492 C170.286799,9.31189917 169.341195,15.6008396 168.200063,22.3650814 C167.715109,25.2388939 167.001488,28.3987674 167.548303,31.3110882 C167.59249,31.5454381 167.663189,31.7522822 167.72947,31.9635272 C167.295332,33.346522 166.512115,34.1331897 165.03958,34.2135068 C163.434484,34.3026258 162.67557,33.5148579 162.736327,30.3263783 C162.809236,26.5085645 164.001183,22.8216787 164.145896,19.0104664 C164.226537,16.8386034 164.021067,13.9691918 161.654848,13.0537967 C160.744594,12.7017217 159.722767,12.7017217 158.767221,12.8150458 C157.062703,13.0152885 155.594587,13.9086789 154.352929,15.2663683 L153.949722,13.3816666 L153.772973,13.3893683 L151.889498,13.777751 L151.036687,18.8872401 C150.805809,19.2404154 150.551733,19.5374787 150.222539,19.8587472 C148.896926,21.152623 147.411135,22.3529788 145.866795,23.386099 C146.14186,19.299828 145.244862,16.3401972 140.509109,16.5492418 C133.673364,16.850706 132.72776,23.1407467 131.586628,29.9038882 C131.313772,31.5597412 131.038708,33.2067922 130.889576,34.7416194 L130.888472,34.7416194 C130.147233,40.0898593 126.880701,42.364044 123.9047,42.7161191 C122.308441,42.9053594 121.303184,42.0174702 121.363941,38.8289906 C121.391558,37.3700796 121.946106,33.9802571 121.946106,33.9802571 L123.278347,25.9914543 C123.776557,25.9177386 124.41727,25.8187175 124.812745,25.7373002 C126.724942,25.3434162 130.382529,23.8162907 131.624187,17.9542412 L129.508729,18.3899341 C128.156604,23.085735 124.806117,23.0846348 123.778766,22.9911148 L125.719685,11.3484332 L122.317278,12.0492826 L119.365579,29.7520559 C119.093829,30.6520477 118.205668,32.5708567 115.833925,34.8285379 C115.234085,35.3984594 114.567964,35.8968656 113.884169,36.3743674 C113.993532,35.2147202 113.963706,34.055073 113.640035,32.9284329 C113.19485,31.376002 112.096801,30.2449609 111.020845,29.0952159 C110.017797,28.0224872 109.013645,26.9497586 108.010598,25.8770299 C107.141217,24.9473318 106.183461,24.0451395 105.638855,22.87449 C104.970525,21.4353832 105.318499,20.1051997 105.761475,18.666093 C106.113867,17.5196486 106.585564,16.3644024 107.412968,15.471012 C108.09124,14.7382558 108.995971,14.331169 109.995704,14.2871596 C112.8524,14.1606327 113.162815,16.7593866 112.598324,21.2769495 L116.439288,20.4847806 C117.077792,15.0562235 116.502255,10.8797333 110.546938,11.1426894 C107.598553,11.2725171 105.080993,12.6016004 103.545491,15.1398414 C102.948965,16.1256515 102.511513,17.2005806 102.159121,18.2931135 C101.710622,19.6838099 101.508466,21.2593457 101.804519,22.729259 C102.116038,24.2684871 103.15554,25.394027 104.187309,26.5129655 C105.479782,27.9157645 106.812023,29.2855564 108.085716,30.704859 C109.209173,31.9558256 110.295071,33.4235384 110.302804,35.1751118 C110.313851,37.2127461 109.68308,39.5507444 109.160568,41.5135628 C108.545262,43.8196543 107.377618,46.7231732 104.581679,46.8463994 C101.747076,46.9718262 101.454336,44.193734 101.807833,40.8974314 C103.258275,41.5014602 104.833545,41.7358101 106.413234,41.64119 C106.586669,40.9920516 106.760103,40.3055053 106.9247,39.6035557 C105.324022,39.8401061 103.733286,39.6607679 102.45186,38.7321699 L102.091735,38.8058856 L101.32288,38.9643194 L99.3278321,39.3758071 L98.310424,39.5859519 C97.532731,45.4171948 97.803377,50.2659283 104.070213,49.9886692 C106.916967,49.8643427 109.370456,48.5770683 110.909272,46.1664545 C111.939936,44.5535107 112.555242,42.7183196 113.000427,40.8699256 C113.157291,40.219687 113.324097,39.5540451 113.473229,38.8796014 C115.40531,37.4580984 117.212563,35.6064037 118.704982,33.7140003 L118.592305,34.3862436 C118.592305,34.3862436 118.055432,37.7606629 118.046594,37.8860896 C117.567164,44.5920189 119.942221,45.6746497 123.651729,45.3962904 C125.760558,45.2378566 128.919936,44.2377434 131.487207,40.4991466 C132.233969,41.8931437 133.654584,42.7040165 136.15226,42.5939931 C142.916201,42.2947293 143.964541,35.8572572 145.042706,29.3108618 C145.273584,27.9399696 145.504461,26.5899819 145.670163,25.3093089 C147.467473,24.2519836 149.147688,22.7897719 150.627956,21.3374624 L147.492881,40.1151647 L150.899707,39.4132151 L153.535467,23.8118898 C154.456769,18.7574124 155.404582,15.7273666 158.278953,15.6008396 C160.56895,15.499618 160.84291,17.7385953 160.783257,19.5363785 C160.645173,23.6149478 159.190312,27.6517082 159.374793,31.7170747 C159.474214,33.9054411 160.113823,36.4414817 162.582777,36.9321863 C163.384773,37.0917203 164.223223,37.0279067 165.024115,36.8936781 C166.318797,36.6780321 167.950406,35.4347671 168.916999,33.8801358 C169.895743,34.7647243 171.278799,35.1421047 172.873954,35.035382 C177.952157,34.6965098 182.272551,31.1405518 185,27.0905886 L183.091117,25.553561 Z" id="Fill-1" fill="#191E25"></path>
            <g id="Group-5">
                <mask id="mask-2" fill="white">
                    <use xlink:href="#path-1"></use>
                </mask>
                <g id="Clip-4"></g>
                <path d="M85.3798129,34.128 C81.736329,34.29 82.8616194,28.9539184 83.5690387,24.7143673 C84.7020065,17.9379184 85.4138129,13.771102 88.7710387,13.6212245 C92.1293613,13.472449 91.4888452,17.6370612 90.3569742,24.4124082 C89.6484581,28.6519592 89.0232968,33.966 85.3798129,34.128 M30.2219419,36.9128571 C29.5134258,41.1535102 28.8904581,46.466449 25.2458774,46.629551 C21.6023935,46.791551 22.7276839,41.4543673 23.4351032,37.2159184 C24.5691677,30.4394694 25.2798774,26.2726531 28.6371032,26.1227755 C31.9954258,25.974 31.3549097,30.1375102 30.2219419,36.9128571 M67.5528452,28.0436327 C68.6858129,21.2682857 69.3965226,17.1003673 72.7537484,16.9515918 C73.7485226,16.9075102 74.5754903,17.3185714 74.9462,18.2751429 C75.8444581,20.5938367 75.0624581,22.5069796 73.6355548,24.136898 C71.910329,26.108449 69.2407806,27.6667347 67.4596194,29.0321633 C67.4311032,29.0542041 67.4025871,29.0762449 67.374071,29.0982857 C67.4343935,28.7423265 67.4947161,28.3885714 67.5528452,28.0436327 M101.696523,29.3087755 L99.8725871,27.9323265 C99.8451677,28.0282041 99.8254258,28.1251837 99.7969097,28.2199592 C99.6005871,28.8602449 99.3647806,29.4994286 99.0182,30.0735918 C98.3853613,31.1183265 97.3862,31.6946939 96.1983935,31.9040816 C95.7355548,31.9878367 95.2376194,32.0076735 94.7901355,31.8390612 C92.5702645,31.0070204 93.1712968,27.189551 93.4718129,25.324898 C93.568329,24.7573469 93.6637484,24.1864898 93.7569742,23.6134286 C93.8929742,22.8045306 94.0278774,22.0022449 94.1507161,21.2164898 C94.8548452,16.9504898 95.560071,12.6844898 96.2652968,8.4184898 C96.5734903,6.55163265 96.8816839,4.68477551 97.1909742,2.81902041 C97.2172968,2.65591837 97.4344581,0.54 97.5726516,0.510244898 L94.1902,1.22877551 L92.5044581,11.4358776 C91.7103935,10.9906531 90.6542,10.7691429 89.2558129,10.8308571 C82.4689742,11.1328163 81.5301355,17.4320816 80.3971677,24.2085306 C80.1756194,25.5662449 79.9529742,26.919551 79.7972323,28.2111429 L79.6020065,29.1511837 C79.172071,31.2164082 77.5455548,32.8132653 76.0155548,34.1423265 C74.4855548,35.4702857 72.3106516,37.0395918 70.2761355,37.368 C67.0691677,37.8848571 66.6699419,35.2300408 66.8717484,32.7361224 C68.4982645,31.5051429 70.1258774,30.2741633 71.7545871,29.0442857 C75.4134258,26.2770612 79.2422645,23.3379184 78.4997484,18.1517143 C78.1367161,15.6181224 76.7514903,14.0036327 73.2396194,14.1601224 C66.4527806,14.4620816 65.5128452,20.762449 64.3809742,27.5377959 C64.1232323,29.1115102 63.8654903,30.6786122 63.7130387,32.1487347 L63.702071,32.1509388 C63.3324581,34.2955102 62.5658129,36.4929796 61.0094903,38.0677959 C59.7482,39.3439592 57.4833613,40.8890204 55.6725871,39.9743265 C52.9405226,38.5945714 54.3608452,33.7753469 54.7469097,31.3960408 L56.0685226,23.3941224 C56.5642645,23.3213878 57.2003935,23.2222041 57.5919419,23.139551 C59.4915548,22.7450204 63.1229742,21.2164898 64.3546516,15.3437143 L62.2554258,15.7801224 C60.9129742,20.4836327 57.5864581,20.4836327 56.5664581,20.3888571 L58.4770387,8.82183673 L55.0967806,9.53926531 L51.4171032,31.8037959 C51.4171032,31.8037959 50.884071,35.1826531 50.8752968,35.3093878 C50.8742,35.3215102 50.8742,35.3325306 50.8731032,35.3446531 C50.5089742,37.5817959 50.1283935,40.2498367 48.2353613,41.6593469 C47.4391032,42.2533469 46.3730387,42.5354694 45.4276194,42.2324082 C43.7660065,41.7001224 43.7111677,39.8839592 43.7385871,38.4182449 C43.7671032,36.9558367 44.3176839,33.561551 44.3176839,33.561551 L48.0390387,11.0402449 L44.6576839,11.7587755 L40.9867806,33.9682041 C40.9867806,33.9682041 40.5579419,36.6230204 40.4636194,37.3117959 C39.5116194,42.6765306 38.5991032,44.1598776 35.7080065,44.5048163 C31.7409742,44.9786939 33.4025871,38.3895918 33.7425871,36.3309796 C34.3907806,32.4055102 35.040071,28.4789388 35.6882645,24.5534694 C35.7058129,24.4421633 35.9207806,22.8045306 36.0085226,22.5334286 L33.2457484,23.1075918 L32.3803935,25.3601633 C31.5468452,24.0773878 30.2888452,23.2244082 28.5954258,23.3588571 C23.1093613,23.7930612 21.5672968,29.1963673 20.7183935,33.9637959 L20.7162,33.9637959 C20.7172968,33.9637959 20.7162,33.967102 20.7172968,33.9682041 L20.6822,34.1720816 C20.4869742,34.7991429 19.5832323,36.7795102 17.7055548,38.8028571 C17.1407161,39.4111837 16.4629097,39.9026939 15.7675548,40.3732653 C15.878329,39.204 15.8509097,38.0358367 15.5284581,36.9007347 C15.0864581,35.3446531 13.9951677,34.2117551 12.9269097,33.0601224 C11.9310387,31.9856327 10.9351677,30.9122449 9.9382,29.8366531 C9.07503871,28.9065306 8.12523226,28.0017551 7.58452258,26.8291837 C6.91987742,25.3888163 7.26645806,24.0553469 7.70626452,22.6138776 C8.05613548,21.465551 8.52336129,20.3084082 9.34484516,19.413551 C10.0193613,18.6795918 10.9165226,18.2718367 11.9091032,18.2277551 C14.7464581,18.1021224 15.0546516,20.7040408 14.4942,25.2290204 L18.3065871,24.4366531 C18.9405226,18.9980816 18.3691032,14.8158367 12.4563935,15.0781224 C9.5302,15.2092653 7.02955484,16.5405306 5.50503871,19.0829388 C4.91278065,20.0692653 4.47955484,21.1459592 4.1285871,22.2402857 C3.68329677,23.6343673 3.48368387,25.2113878 3.77761935,26.6837143 C4.0858129,28.2265714 5.11787742,29.3528571 6.14226452,30.4747347 C7.4265871,31.8787347 8.7482,33.2518776 10.0138774,34.6735102 C11.1282,35.9254286 12.206329,37.395551 12.2151032,39.151102 C12.226071,41.1909796 11.5998129,43.5328163 11.0799419,45.4988571 C10.4690387,47.8098367 9.31084516,50.7170204 6.5338129,50.841551 C3.71949032,50.9660816 3.42884516,48.1834286 3.7798129,44.8817143 C5.22097419,45.4878367 6.78497419,45.7214694 8.35336129,45.6277959 C8.52445806,44.9764898 8.69665161,44.2888163 8.86007097,43.5868163 C7.27084516,43.8226531 5.6925871,43.6430204 4.42032903,42.712898 L1.31755484,43.3575918 L0.308522581,43.5680816 C-0.463606452,49.408898 -0.194896774,54.2655918 6.02600645,53.9889796 C8.85349032,53.8633469 11.288329,52.5750612 12.8172323,50.1604898 C13.8394258,48.544898 14.4514258,46.7066939 14.8934258,44.8541633 C15.0491677,44.2039592 15.2136839,43.5361224 15.3628452,42.8605714 C17.0431032,41.6130612 18.6290387,40.0349388 19.992329,38.3884898 C19.060071,44.3218776 18.6564581,49.6921224 24.7962,49.4188163 C28.0053613,49.275551 29.9170387,47.7271837 31.1563935,45.4349388 C32.062329,46.8477551 33.476071,47.3403673 35.4568452,47.1904898 C37.5626516,47.0306939 39.6004581,46.2592653 41.3311677,42.6313469 C42.194329,44.6006939 43.7034903,45.170449 46.0100065,44.9963265 C48.0061355,44.8453469 49.9441355,44.2083673 51.6485226,41.0620408 C52.5939419,42.6809388 54.2884581,42.9939184 56.440329,42.8308163 C58.5263935,42.6732245 61.6467161,41.6769796 64.1912323,37.9653061 C64.9052323,39.474 66.3277484,40.3622449 68.9139419,40.2465306 C68.9139419,40.2465306 69.8582645,40.1682857 70.5426516,40.0261224 C74.0632968,39.2943673 77.8954258,35.856 79.8246516,33.5174694 C80.3313613,35.6906939 81.756071,37.0583265 84.9301355,36.9172653 C87.9901355,36.7817143 89.8645226,35.3611837 91.1071677,33.2430612 C91.3572323,33.532898 91.6511677,33.7907755 92.0218774,33.9891429 C94.3141355,35.2168163 97.5638774,34.8090612 99.4514258,32.9873878 C100.491168,31.9834286 101.155813,30.6543673 101.696523,29.3087755" id="Fill-3" fill="#191E25" mask="url(#mask-2)"></path>
            </g>
        </g>
    </g>
</svg>