<svg width="74px" height="74px" viewBox="0 0 74 74" version="1.1" xmlns="http://www.w3.org/2000/svg" xmlns:xlink="http://www.w3.org/1999/xlink"> <!-- Generator: Sketch 50 (54983) - http://www.bohemiancoding.com/sketch --> <title>Page 1</title> <desc>Created with Sketch.</desc> <defs></defs> <g id="Page-1" stroke="none" stroke-width="1" fill="none" fill-rule="evenodd"> <g id="home" transform="translate(-1223.000000, -1167.000000)" fill="#D68230"> <g id="Group-11" transform="translate(1224.000000, 1168.000000)"> <g id="Page-1"> <path d="M35,2 L37,2 L37,0 L35,0 L35,2 Z M35,7 L37,7 L37,4.999 L35,4.999 L35,7 Z M35,12 L37,12 L37,10 L35,10 L35,12 Z M35,27 L37,27 L37,25 L35,25 L35,27 Z M35,32 L37,32 L37,30 L35,30 L35,32 Z M35,37 L37,37 L37,35 L35,35 L35,37 Z M35,41.999 L37,41.999 L37,39.999 L35,39.999 L35,41.999 Z M35,47 L37,47 L37,45 L35,45 L35,47 Z M35,52 L37,52 L37,49.999 L35,49.999 L35,52 Z M35,57 L37,57 L37,55 L35,55 L35,57 Z M35,67 L37,67 L37,65 L35,65 L35,67 Z M35,72 L37,72 L37,70 L35,70 L35,72 Z" id="Fill-1"></path> <path d="M70,37 L72,37 L72,35 L70,35 L70,37 Z M65.001,37 L67.001,37 L67.001,35 L65.001,35 L65.001,37 Z M60,37 L62,37 L62,35 L60,35 L60,37 Z M45,37 L47.001,37 L47.001,35 L45,35 L45,37 Z M40,37 L42,37 L42,35 L40,35 L40,37 Z M35,37 L37,37 L37,35 L35,35 L35,37 Z M30.001,37 L32.001,37 L32.001,35 L30.001,35 L30.001,37 Z M25,37 L27,37 L27,35 L25,35 L25,37 Z M10,37 L12.001,37 L12.001,35 L10,35 L10,37 Z M5,37 L7,37 L7,35 L5,35 L5,37 Z M0,37 L2.001,37 L2.001,35 L0,35 L0,37 Z" id="Fill-2"></path> <polygon id="Stroke-5" fill-rule="nonzero" points="48.3760932 15.1235068 49.7903068 13.7092932 58.5403068 22.4592932 57.1260932 23.8735068"></polygon> <polygon id="Stroke-6" fill-rule="nonzero" points="57.1260932 13.7092932 58.5403068 15.1235068 49.7903068 23.8735068 48.3760932 22.4592932"></polygon> <polygon id="Stroke-7" fill-rule="nonzero" points="61.5417 22.9164 63.5417 22.9164 63.5417 28.8744 57.5837 28.8744 57.5837 26.8744 61.5417 26.8744"></polygon> <polygon id="Stroke-8" fill-rule="nonzero" points="45.3752 14.6669 43.3752 14.6669 43.3752 8.7089 49.3332 8.7089 49.3332 10.7089 45.3752 10.7089"></polygon> <polygon id="Stroke-9" fill-rule="nonzero" points="49.3337 26.8749 49.3337 28.8749 43.3757 28.8749 43.3757 22.9169 45.3757 22.9169 45.3757 26.8749"></polygon> <polygon id="Stroke-10" fill-rule="nonzero" points="57.5832 10.7084 57.5832 8.7084 63.5412 8.7084 63.5412 14.6664 61.5412 14.6664 61.5412 10.7084"></polygon> <g id="Group-35" fill-rule="nonzero"> <path d="M56.4501184,5.16699658 L55.3432816,6.83280342 C49.6488116,3.04914225 42.9775449,0.9999 36.0007,0.9999 C16.6703344,0.9999 1.0007,16.6698351 1.0007,35.9999 C1.0007,55.3299649 16.6703344,70.9999 36.0007,70.9999 C55.3297649,70.9999 71.0007,55.3292656 71.0007,35.9999 C71.0007,29.3617428 69.1436533,22.996823 65.6937448,17.4779679 L67.3896552,16.4178321 C71.0366417,22.2519549 73.0007,28.983651 73.0007,35.9999 C73.0007,56.4338437 56.4343258,72.9999 36.0007,72.9999 C15.5657563,72.9999 -0.9993,56.4345258 -0.9993,35.9999 C-0.9993,15.5652742 15.5657563,-1.0001 36.0007,-1.0001 C43.3747338,-1.0001 50.4303835,1.16721487 56.4501184,5.16699658 Z" id="Stroke-11"></path> <path d="M30.5925,10.2084 L30.5925,12.2084 C22.9407444,12.2084 16.2860277,17.2937889 14.2035519,24.5377681 C13.2311842,27.9191132 10.2220548,30.2594 6.7545,30.2594 L0.9805,30.2594 L0.9805,28.2594 L6.7545,28.2594 C9.31734932,28.2594 11.5520713,26.5213922 12.2814248,23.9851132 C14.6086771,15.8896687 22.0431594,10.2084 30.5925,10.2084 Z" id="Stroke-13"></path> <path d="M22.5417,50.2084 C22.5417,48.5516847 21.1984153,47.2084 19.5417,47.2084 C17.8849847,47.2084 16.5417,48.5516847 16.5417,50.2084 C16.5417,51.8651153 17.8849847,53.2084 19.5417,53.2084 C21.1984153,53.2084 22.5417,51.8651153 22.5417,50.2084 Z M24.5417,50.2084 C24.5417,52.9696847 22.3029847,55.2084 19.5417,55.2084 C16.7804153,55.2084 14.5417,52.9696847 14.5417,50.2084 C14.5417,47.4471153 16.7804153,45.2084 19.5417,45.2084 C22.3029847,45.2084 24.5417,47.4471153 24.5417,50.2084 Z" id="Stroke-15"></path> <polygon id="Stroke-17" points="35.9195932 15.0005068 37.3338068 13.5862932 42.0409136 18.2934 37.3338068 23.0005068 35.9195932 21.5862932 39.2124864 18.2934"></polygon> <polygon id="Stroke-19" points="26.9195932 8.00050678 28.3338068 6.58629322 33.0409136 11.2934 28.3338068 16.0005068 26.9195932 14.5862932 30.2124864 11.2934"></polygon> <polygon id="Stroke-21" points="52.5417 31.2084 54.5417 31.2084 54.5417 67.2084 52.5417 67.2084"></polygon> <polygon id="Stroke-23" points="42.1634068 47.8301068 40.7491932 46.4158932 45.4563 41.7087864 50.1634068 46.4158932 48.7491932 47.8301068 45.4563 44.5372136"></polygon> <polygon id="Stroke-25" points="58.1634068 45.8301068 56.7491932 44.4158932 61.4563 39.7087864 66.1634068 44.4158932 64.7491932 45.8301068 61.4563 42.5372136"></polygon> <polygon id="Stroke-27" points="60.5417 41.2084 62.5417 41.2084 62.5417 61.2084 60.5417 61.2084"></polygon> <polygon id="Stroke-29" points="50.1634068 35.8301068 48.7491932 34.4158932 53.4563 29.7087864 58.1634068 34.4158932 56.7491932 35.8301068 53.4563 32.5372136"></polygon> <path d="M40.5417,17.2084 L40.5417,19.2084 L37.5927,19.2084 C28.1759847,19.2084 20.5417,26.8426847 20.5417,36.2594 L20.5417,46.2084 L18.5417,46.2084 L18.5417,36.2594 C18.5417,25.7381153 27.0714153,17.2084 37.5927,17.2084 L40.5417,17.2084 Z" id="Stroke-31"></path> <path d="M44.5417,43.2084 L46.5417,43.2084 L46.5417,55.4344 C46.5417,59.7276847 43.0609847,63.2084 38.7677,63.2084 L10.5647,63.2084 L10.5647,61.2084 L38.7677,61.2084 C41.9564153,61.2084 44.5417,58.6231153 44.5417,55.4344 L44.5417,43.2084 Z" id="Stroke-33"></path> </g> </g> </g> </g> </g> </svg> 
