<svg width="74px" height="74px" viewBox="0 0 74 74" version="1.1" xmlns="http://www.w3.org/2000/svg" xmlns:xlink="http://www.w3.org/1999/xlink"> <!-- Generator: Sketch 50 (54983) - http://www.bohemiancoding.com/sketch --> <title>Page 1</title> <desc>Created with Sketch.</desc> <defs></defs> <g id="Page-1" stroke="none" stroke-width="1" fill="none" fill-rule="evenodd"> <g id="home" transform="translate(-1344.000000, -1168.000000)" fill="#D68230" fill-rule="nonzero"> <g id="Group-10" transform="translate(1345.000000, 1168.000000)"> <g id="Page-1"> <polygon id="Stroke-1" points="17.4435 41.811 19.4435 41.811 19.4435 68.862 17.4435 68.862"></polygon> <polygon id="Stroke-2" points="15.4435 65.8118 13.4435 65.8118 13.4435 40.6026917 18.4435 26.3314417 23.4435 40.6026917 23.4435 70.8618 21.4435 70.8618 21.4435 40.9429083 18.4435 32.3801583 15.4435 40.9429083"></polygon> <polygon id="Stroke-4" points="16.9693 34.5639 16.9693 32.5639 19.9183 32.5639 19.9183 34.5639"></polygon> <path d="M30.236,41.1851 L30.236,28.1851 L40.236,28.1851 L40.236,41.1851 L30.236,41.1851 Z M38.236,39.1851 L38.236,30.1851 L32.236,30.1851 L32.236,39.1851 L38.236,39.1851 Z" id="Stroke-5"></path> <g id="Group-28" transform="translate(0.000000, 0.806100)"> <path d="M39.9843,23.6769366 L40.3511688,23.3768555 L41.1420122,22.7299837 C44.0967444,20.3121564 46.4125866,19.1724503 49.5220232,18.8337792 L50.6303,18.7130688 L50.6303,22.1769 C50.6303,22.2886153 50.7205847,22.3789 50.8323,22.3789 L56.0343,22.3789 C56.1460153,22.3789 56.2363,22.2886153 56.2363,22.1769 L56.2363,12.5039 C56.2363,12.3921847 56.1460153,12.3019 56.0343,12.3019 L50.8323,12.3019 C50.7205847,12.3019 50.6303,12.3921847 50.6303,12.5039 L50.6303,14.6423783 L49.5223361,14.5220548 C46.413428,14.1844314 44.0980846,13.0447402 41.1421688,10.6259445 L39.9843,9.67886344 L39.9843,9.07929266 L31.5956825,9.24864948 C29.4687325,9.29626776 27.4404262,9.61689267 25.5571722,10.2209726 C19.5217416,12.1599744 14.8727699,16.3529477 13.0203221,21.510245 C12.8581291,21.9613443 13.3866293,22.3962293 13.7984372,22.1504294 C17.1614111,20.1413397 21.2557624,18.5803814 25.7962859,17.579289 C28.2565953,17.0376187 30.5933,18.897248 30.5933,21.4139 L30.5933,27.3789 L32.2363,27.3789 L32.2363,38.3789 L38.2363,38.3789 L38.2363,27.3789 L39.9843,27.3789 L39.9843,23.6769366 Z M50.8323,10.3019 L56.0343,10.3019 C57.2505847,10.3019 58.2363,11.2876153 58.2363,12.5039 L58.2363,22.1769 C58.2363,23.3931847 57.2505847,24.3789 56.0343,24.3789 L50.8323,24.3789 C49.6160153,24.3789 48.6303,23.3931847 48.6303,22.1769 L48.6303,20.9902439 C46.484059,21.4162298 44.7046633,22.3989613 42.4084312,24.2779445 L41.9843,24.6248634 L41.9843,29.3789 L40.2363,29.3789 L40.2363,40.3789 L30.2363,40.3789 L30.2363,29.3789 L28.5933,29.3789 L28.5933,21.4139 C28.5933,20.1798742 27.4432116,19.2645946 26.2266084,19.5324461 C21.8880345,20.4890127 17.9942899,21.9734904 14.8238246,23.8675726 C12.7997155,25.075723 10.3405714,23.0521761 11.1381698,20.8338558 C13.2096168,15.0668546 18.3412697,10.4385442 24.9458645,8.31668724 C27.0192528,7.65161901 29.2376894,7.30093921 31.553115,7.24910374 L41.9843,7.03850708 L41.9843,8.73093657 L42.4085878,9.07798365 C44.707218,10.9589292 46.4871296,11.941759 48.6345033,12.3666966 C48.7053188,11.2143422 49.6620943,10.3019 50.8323,10.3019 Z M29.2559261,38.3789 L41.2166985,38.3789 L41.8565262,70.697661 C48.9588122,69.4998959 55.5384956,66.1524908 60.7481932,60.9427932 C74.4166689,47.2743175 74.4166689,25.1134825 60.7481681,11.4449816 C47.0806939,-2.22346474 24.9198783,-2.22346474 11.2514068,11.4450068 C-2.41706893,25.1134825 -2.41706893,47.2743175 11.2514068,60.9427932 C16.0808595,65.7722459 22.0904266,69.0031764 28.6211175,70.4034532 L29.2559261,38.3789 Z M31.2166739,40.3789 L30.5738748,72.8065527 L29.4203137,72.5991133 C22.0465633,71.2731273 15.2408138,67.7606274 9.83719322,62.3570068 C-4.61233107,47.9074825 -4.61233107,24.4803175 9.83719322,10.0307932 C24.2867217,-4.41873526 47.7139061,-4.41873526 62.1624068,10.0307932 C76.6119311,24.4803175 76.6119311,47.9074825 62.1624068,62.3570068 C56.3697059,68.1497077 48.9698788,71.7662964 41.0141194,72.8487702 L39.9017172,73.0001255 L39.2559015,40.3789 L31.2166739,40.3789 Z" id="Stroke-6"></path> <path d="M42.4081312,9.07805551 C45.0872338,11.2703377 47.0627779,12.2425714 49.7382768,12.5339792 L50.63,12.6311032 L50.63,20.7253808 L49.7379639,20.8222548 C47.0634356,21.1127052 45.0884697,22.0848509 42.4081312,24.2781445 L39.984,26.2609674 L39.984,7.09523264 L42.4081312,9.07805551 Z M41.984,22.0628313 C44.2750824,20.3110849 46.2408366,19.3587338 48.63,18.9566859 L48.63,14.3992805 C46.2403375,13.9966176 44.2742801,13.0443252 41.984,11.2933407 L41.984,22.0628313 Z" id="Stroke-8"></path> <polygon id="Stroke-10" points="49.7262 70.0059 47.7262 70.0059 47.7262 30.0059 61.7262 30.0059 61.7262 62.0059 59.7262 62.0059 59.7262 32.0059 49.7262 32.0059"></polygon> <polygon id="Stroke-12" points="48.7262 36.7578 48.7262 34.7578 54.7262 34.7578 54.7262 36.7578"></polygon> <polygon id="Stroke-14" points="48.7262 41.0059 48.7262 39.0059 51.7262 39.0059 51.7262 41.0059"></polygon> <polygon id="Stroke-16" points="48.7262 45.2534 48.7262 43.2534 54.7262 43.2534 54.7262 45.2534"></polygon> <polygon id="Stroke-18" points="48.7262 49.5015 48.7262 47.5015 51.7262 47.5015 51.7262 49.5015"></polygon> <polygon id="Stroke-20" points="48.7262 53.7495 48.7262 51.7495 54.7262 51.7495 54.7262 53.7495"></polygon> <polygon id="Stroke-22" points="48.7262 57.9971 48.7262 55.9971 51.7262 55.9971 51.7262 57.9971"></polygon> <polygon id="Stroke-24" points="48.7262 62.2451 48.7262 60.2451 54.7262 60.2451 54.7262 62.2451"></polygon> <polygon id="Stroke-26" points="48.7262 66.4932 48.7262 64.4932 51.7262 64.4932 51.7262 66.4932"></polygon> </g> </g> </g> </g> </g> </svg> 
